<svg xmlns="http://www.w3.org/2000/svg" viewBox="0 0 1296 455.81"><defs><style>.cls-1{fill:#f7e42d;}</style></defs><g id="STAR_WARS" data-name="STAR WARS"><path d="M155.94,186.16c-14.11,0-27.07-2.55-38.51-7.58a62.13,62.13,0,0,1-27.52-23c-6.69-10.2-10.07-22.8-10.07-37.47a62.88,62.88,0,0,1,6-27.89,57.13,57.13,0,0,1,16.75-20.48A73.51,73.51,0,0,1,127,57.66a104.49,104.49,0,0,1,29-3.94h59v43H172.53a175.7,175.7,0,0,0-19.55.78A48.53,48.53,0,0,0,142.07,100a18.89,18.89,0,0,0-7.87,5.71c-2.21,2.61-3.52,7.53-3.91,14.64.28,6.87,1.6,11.76,3.92,14.53a16.68,16.68,0,0,0,8.62,5.64,71.58,71.58,0,0,0,11.59,2.13c4,.4,10.1.6,18.11.6h42.39v42.95Z"/><path class="cls-1" d="M212.42,56.22v38H172.53a178.4,178.4,0,0,0-19.86.8,51.2,51.2,0,0,0-11.47,2.64,21.35,21.35,0,0,0-8.91,6.45q-3.89,4.59-4.5,16.23.44,11.31,4.5,16.15a19.24,19.24,0,0,0,9.88,6.45,73.19,73.19,0,0,0,12,2.2q6.18.63,18.36.62h39.89v37.95H155.94q-20.74,0-37.51-7.37A59.35,59.35,0,0,1,92,154.18q-9.66-14.73-9.66-36.09A60,60,0,0,1,88.12,91.3a54.48,54.48,0,0,1,16-19.59,70.79,70.79,0,0,1,23.52-11.65,101.46,101.46,0,0,1,28.29-3.84h56.48m5-5H155.94a106.72,106.72,0,0,0-29.67,4A76,76,0,0,0,101.1,67.74,59.6,59.6,0,0,0,83.63,89.1a65.18,65.18,0,0,0-6.29,29c0,15.16,3.52,28.23,10.48,38.84a64.61,64.61,0,0,0,28.6,23.94c11.76,5.17,25.06,7.79,39.52,7.79h61.48V140.71H172.53c-7.92,0-13.93-.2-17.86-.59a67.45,67.45,0,0,1-11.18-2.06,14.32,14.32,0,0,1-7.37-4.82c-1.34-1.6-3-5.14-3.33-12.91.48-8.5,2.28-11.82,3.31-13a16.2,16.2,0,0,1,6.83-5,47.09,47.09,0,0,1,10.36-2.37,175.42,175.42,0,0,1,19.24-.76h44.89V51.22Z"/><path d="M286.11,188.37c-15.58,0-29.19-2.59-40.43-7.68a56.09,56.09,0,0,1-26.07-23.09c-5.84-10.08-8.81-22.51-8.81-36.95,0-10.92,1.7-20.69,5-29a55.91,55.91,0,0,1,14.87-21.37,65,65,0,0,1,23.85-13.09,105.27,105.27,0,0,1,31.55-4.4c15.53,0,29.15,2.62,40.49,7.77A57.8,57.8,0,0,1,353,83.76c6,10.14,9.09,22.55,9.09,36.89s-3.06,26.76-9.09,36.93a57,57,0,0,1-26.41,23.16C315.33,185.8,301.7,188.37,286.11,188.37ZM285.85,93c-16.67,0-24.77,9.18-24.77,28,0,7.68,1.73,14.43,5.15,20.06,3.18,5.23,9.78,7.89,19.62,7.89,7.75,0,13.55-1.43,17.23-4.25s6-6,6.87-9.53a79.22,79.22,0,0,0,2-14.19,43.07,43.07,0,0,0-5.56-20.11C303.29,95.62,296.38,93,285.85,93Z"/><path class="cls-1" d="M286.11,55.25q22.86,0,39.45,7.55T350.89,85q8.75,14.68,8.74,35.61t-8.74,35.65a54.27,54.27,0,0,1-25.28,22.15q-16.55,7.43-39.5,7.42t-39.4-7.46q-16.46-7.46-24.93-22.06t-8.48-35.7q0-16,4.86-28.11a53.22,53.22,0,0,1,14.21-20.43,62.26,62.26,0,0,1,22.94-12.58,102.53,102.53,0,0,1,30.8-4.28m-.26,96.2q12.52,0,18.75-4.77t7.77-10.9A81.57,81.57,0,0,0,314.44,121a45.28,45.28,0,0,0-5.91-21.4q-5.38-9.13-22.68-9.14-27.27,0-27.27,30.54,0,12.27,5.52,21.36t21.75,9.09m.26-101.2a108,108,0,0,0-32.3,4.51,67.54,67.54,0,0,0-24.76,13.61,58.49,58.49,0,0,0-15.53,22.31c-3.46,8.65-5.22,18.73-5.22,30,0,14.89,3.08,27.74,9.15,38.21s15.31,18.72,27.2,24.1c11.57,5.25,25.52,7.91,41.46,7.91S316,188.23,327.65,183a59.45,59.45,0,0,0,27.54-24.17c6.27-10.56,9.44-23.41,9.44-38.2S361.45,93,355.19,82.48a60.25,60.25,0,0,0-27.56-24.23c-11.66-5.31-25.63-8-41.52-8Zm-.26,96.2c-8.91,0-14.79-2.25-17.48-6.69A35.6,35.6,0,0,1,263.58,121c0-17.66,6.87-25.54,22.27-25.54,9.58,0,15.76,2.25,18.37,6.68A40.45,40.45,0,0,1,309.44,121a76.53,76.53,0,0,1-1.92,13.6c-.75,3-2.7,5.66-6,8.15s-8.52,3.74-15.71,3.74Z"/><path d="M441.66,186.19l-2.92,0H363.22V53.72h77.69a84.69,84.69,0,0,1,27.74,4.2,63.29,63.29,0,0,1,20.49,11.41c5.6,4.8,10.32,11.36,14,19.48s5.56,18.74,5.56,31.57v.14c-.66,11.81-2.68,22-6,30.35s-7.93,15.25-13.56,20.2a59.19,59.19,0,0,1-20.49,11.43C461.35,185,452.27,186.19,441.66,186.19Zm-9.13-36.8c4.93,0,8.9-1,11.81-3a25.44,25.44,0,0,0,7.48-8.12c1.9-3.25,3.15-9.42,3.71-18.34-.17-8.1-1.27-14.08-3.27-17.78a24,24,0,0,0-7.71-8.73c-3-2-7.14-3.06-12.2-3.06H410.76v59.07Z"/><path class="cls-1" d="M440.91,56.22a81.89,81.89,0,0,1,26.92,4.06,60.4,60.4,0,0,1,19.68,11q8,6.87,13.37,18.62t5.34,30.53q-1,17.38-5.83,29.57t-12.88,19.24a56.37,56.37,0,0,1-19.64,10.94q-10.64,3.56-26.21,3.56l-2.87,0H365.72V56.22h75.19m-32.65,95.67h24.27q8.21,0,13.24-3.49a27.6,27.6,0,0,0,8.2-8.91q3.18-5.43,4.06-19.55-.25-12.89-3.57-19a26.46,26.46,0,0,0-8.52-9.62q-5.2-3.48-13.59-3.48H408.26v64.07M440.91,51.22H360.72V188.66h78l2.92,0c10.88,0,20.23-1.28,27.8-3.82a61.58,61.58,0,0,0,21.35-11.93c5.93-5.21,10.71-12.32,14.23-21.14,3.42-8.58,5.5-19.06,6.17-31.14v-.28c0-13.19-2-24.16-5.79-32.6s-8.78-15.31-14.67-20.35a65.5,65.5,0,0,0-21.28-11.87,87.08,87.08,0,0,0-28.57-4.34Zm-27.65,41.6h19.09c4.56,0,8.19.89,10.81,2.64a21.2,21.2,0,0,1,6.9,7.84c1.24,2.29,2.75,7,3,16.54-.68,10.54-2.2,15.13-3.37,17.12a22.59,22.59,0,0,1-6.74,7.33c-2.49,1.73-6,2.6-10.39,2.6H413.26V92.82Z"/><polygon points="509.9 186.16 509.9 53.72 624.16 53.72 624.16 96.67 556.38 96.67 556.38 106.32 600.15 106.32 600.15 133.56 556.38 133.56 556.38 143.21 634.92 143.21 634.92 186.16 509.9 186.16"/><path class="cls-1" d="M621.66,56.22v38H553.88v14.65h43.77v22.24H553.88v14.65h78.54v37.95h-120V56.22H621.66m5-5H507.4V188.66h130V140.71H558.88v-4.65h43.77V103.82H558.88V99.17h67.78V51.22Z"/><polygon points="748.01 186.16 748.01 96.67 707.59 96.67 707.59 53.72 834.91 53.72 834.91 96.67 794.49 96.67 794.49 186.16 748.01 186.16"/><path class="cls-1" d="M832.41,56.22v38H792v89.49H750.51V94.17H710.09V56.22H832.41m5-5H705.09v48h40.42v89.49H797V99.17h40.42V51.22Z"/><path d="M922.24,186.16l-36.85-38.38v38.38H834.32V53.72H920c10.61,1,19.5,3.85,26.41,8.54A41.66,41.66,0,0,1,961.81,81.4l.08.21.05.23c2.47,11.85,2.56,20.83.27,27.45a35.31,35.31,0,0,1-12,16.51c-4.85,3.78-11.56,6.86-20,9.2l6.43,8.21h39.4v42.95ZM915,109a8.28,8.28,0,0,0,4.23-1.51c.55-.35,1.86-1.78,2-7.42-.32-5-1.57-7-2.57-7.71-2.23-1.66-3.37-1.84-3.76-1.84H885.39V109Z"/><path class="cls-1" d="M919.78,56.22q15.36,1.41,25.24,8.12a38.93,38.93,0,0,1,14.47,18q3.54,16.94.36,26.12a32.67,32.67,0,0,1-11.12,15.35q-8,6.18-22.77,9.71l9.53,12.18h38.12v37.95h-50.3l-40.42-42.1v42.1H836.82V56.22h83m-36.89,55.25H915a10.52,10.52,0,0,0,5.56-1.9c2-1.26,3.06-4.46,3.18-9.57q-.45-7.34-3.57-9.67T914.92,88h-32v23.48M920,51.22H831.82V188.66h56.07V154l31.81,33.13,1.48,1.54h57.43V140.71H937.92l-3.41-4.36c7.09-2.29,12.89-5.16,17.29-8.58a37.78,37.78,0,0,0,12.77-17.67c2.44-7,2.38-16.46-.18-28.77l-.09-.45-.18-.42A44.1,44.1,0,0,0,947.83,60.2c-7.27-4.93-16.55-7.94-27.59-9l-.23,0ZM887.89,93h27a7.72,7.72,0,0,1,2.34,1.35s1.24,1,1.56,5.75c-.12,3.82-.81,5.08-1,5.33a5.59,5.59,0,0,1-2.77,1H887.89V93Z"/><polygon points="971.11 186.16 971.11 53.72 1085.37 53.72 1085.37 96.67 1017.59 96.67 1017.59 106.32 1061.37 106.32 1061.37 133.56 1017.59 133.56 1017.59 143.21 1096.14 143.21 1096.14 186.16 971.11 186.16"/><path class="cls-1" d="M1082.87,56.22v38h-67.78v14.65h43.78v22.24h-43.78v14.65h78.55v37.95h-120V56.22h109.26m5-5H968.61V188.66h130V140.71h-78.55v-4.65h43.78V103.82h-43.78V99.17h67.78V51.22Z"/><polygon points="1091.14 186.16 1091.14 53.72 1205.4 53.72 1205.4 96.67 1137.62 96.67 1137.62 106.32 1181.39 106.32 1181.39 133.56 1137.62 133.56 1137.62 143.21 1216.16 143.21 1216.16 186.16 1091.14 186.16"/><path class="cls-1" d="M1202.9,56.22v38h-67.78v14.65h43.77v22.24h-43.77v14.65h78.54v37.95h-120V56.22H1202.9m5-5H1088.64V188.66h130V140.71h-78.54v-4.65h43.77V103.82h-43.77V99.17h67.78V51.22Z"/><polygon points="419.68 403.06 405.61 356.02 393.93 403.06 348.64 403.06 308.29 270.62 354.97 270.62 370.45 319.39 383.89 270.62 425.75 270.62 441.18 318.53 451.47 270.62 498.17 270.62 464.97 403.06 419.68 403.06"/><path class="cls-1" d="M495,273.12,463,400.55H421.54l-16.15-54-13.41,54H350.5L311.66,273.12h41.48l17.48,55.07,15.18-55.07h38.12l17.74,55.07,11.83-55.07H495m6.41-5H449.45l-.85,3.95-7.91,36.81-12-37.3-1.11-3.46H382l-1,3.67-10.7,38.8-12.37-39-1.11-3.48H304.91l2,6.45L345.71,402l1.08,3.54h49.1l.94-3.79,9-36.27L416.75,402l1.07,3.56h49.1l.95-3.78,31.95-127.44,1.56-6.21Z"/><path d="M584.21,403.05l-8-22.94H541.87l-8,22.94h-51l43.57-132.43h66.89l44.3,132.43Zm-10.78-53.71L560,309l-14.62,40.37Z"/><path class="cls-1" d="M591.55,273.12l42.62,127.43H586l-8-22.94H540.09l-8,22.94H486.35l41.92-127.43h63.28m-49.78,78.72H576.9L560,301.36l-18.27,50.48m53.38-83.72h-70.5l-1.13,3.43L481.6,399l-2.16,6.56h56.17l1.17-3.34,6.86-19.6h30.77l6.86,19.6,1.17,3.34h58.68l-2.2-6.58L596.29,271.53l-1.14-3.41ZM548.9,346.84l11-30.26L570,346.84Z"/><path d="M740.88,403.05,704,364.67v38.38H653V270.62h85.69c10.61,1,19.5,3.85,26.42,8.54a41.59,41.59,0,0,1,15.38,19.13l.09.21,0,.22c2.47,11.86,2.56,20.84.27,27.45a35.26,35.26,0,0,1-12,16.51c-4.85,3.78-11.56,6.87-20,9.21l6.43,8.21h39.41v42.94Zm-7.23-77.19a8.18,8.18,0,0,0,4.22-1.51c.56-.35,1.86-1.78,2-7.41-.32-5-1.57-7-2.57-7.71-2.23-1.66-3.37-1.84-3.75-1.84H704v18.47Z"/><path class="cls-1" d="M738.41,273.12q15.36,1.41,25.24,8.12a39,39,0,0,1,14.48,18q3.52,16.93.35,26.12a32.74,32.74,0,0,1-11.12,15.36q-8,6.18-22.77,9.71l9.53,12.18h38.13v37.94H741.94l-40.42-42.09v42.09H655.45V273.12h83m-36.89,55.24h32.13a10.64,10.64,0,0,0,5.56-1.89q3-1.91,3.17-9.58c-.29-4.88-1.48-8.11-3.57-9.66s-3.84-2.34-5.25-2.34h-32v23.47m37.12-60.24H650.45V405.55h56.07V370.88L738.33,404l1.48,1.53h57.44V357.61H756.56l-3.42-4.37c7.09-2.28,12.89-5.15,17.29-8.58A37.68,37.68,0,0,0,783.2,327c2.44-7.05,2.38-16.47-.18-28.78l-.09-.44-.17-.42a44.08,44.08,0,0,0-16.3-20.26c-7.27-4.93-16.55-8-27.59-9l-.23,0Zm-32.12,41.77h27a7.41,7.41,0,0,1,2.34,1.34s1.24,1,1.56,5.75c-.11,3.82-.8,5.09-1,5.33a5.59,5.59,0,0,1-2.76,1.05H706.52V309.89Z"/><path d="M807,403.05V360.11h29.33l2.21,0c8.62,0,9.59-1.69,9.6-1.71s.3-2.06-7-7.8l-.07-.06-.07-.07c-21.07-19.37-30.11-37.6-26.89-54.21,3.31-17,13.87-25.67,31.4-25.67h72v42.95H884c-.81,0-1.52,0-2.2,0-7.57,0-8.6,1.48-8.61,1.49h0s-.15,1.81,5.7,6.65c19.61,17.19,29.34,34.23,29,50.7-.38,17.07-10.53,27.38-30.15,30.65l-.21,0Z"/><path class="cls-1" d="M915.06,273.12v37.95H884c-.76,0-1.5,0-2.2,0q-19.68,0-4.51,12.57,28.61,25.06,28.07,48.71t-28.07,28.24H809.5V362.61h26.83l2.21,0q21.91,0,4.15-14Q812,320.41,816.57,296.77t28.94-23.65h69.55m5-5H845.51c-18.63,0-30.34,9.57-33.85,27.7-3.4,17.51,5.9,36.53,27.64,56.52l.15.13.15.12a35.81,35.81,0,0,1,5,4.61,33,33,0,0,1-6.09.44l-2.06,0h-32v47.94h73.2l.41-.06c14.42-2.41,31.72-10.09,32.24-33.06.38-17.25-9.63-34.94-29.77-52.59l-.05,0-.06,0a33.34,33.34,0,0,1-3.62-3.41,32,32,0,0,1,4.94-.31l2.05,0h36.22V268.12Z"/></g></svg>